<?xml version="1.0" standalone="no"?>
<!DOCTYPE svg PUBLIC "-//W3C//DTD SVG 20010904//EN"
 "http://www.w3.org/TR/2001/REC-SVG-20010904/DTD/svg10.dtd">
<svg version="1.0" xmlns="http://www.w3.org/2000/svg"
 width="512.000000pt" height="288.000000pt" viewBox="0 0 512.000000 288.000000"
 preserveAspectRatio="xMidYMid meet">

<g transform="translate(0.000000,288.000000) scale(0.100000,-0.100000)"
fill="#000000" stroke="none">
<path d="M18 2868 c17 -17 15 -29 -3 -22 -13 5 -15 -7 -15 -79 0 -88 8 -105
46 -90 8 3 25 -4 38 -16 16 -15 33 -21 52 -19 25 3 34 14 67 80 35 68 41 75
58 65 15 -9 22 -7 39 13 11 13 18 30 15 38 -3 8 0 21 6 28 10 12 -15 14 -152
14 -127 0 -160 -3 -151 -12z"/>
<path d="M397 2818 c3 -35 0 -88 -6 -118 -7 -30 -12 -70 -11 -87 1 -30 -2 -33
-29 -33 -35 0 -41 -13 -47 -95 -3 -33 -12 -88 -20 -123 -15 -59 -15 -64 5
-105 30 -62 28 -68 -21 -65 l-42 3 -11 -50 c-7 -29 -27 -71 -48 -98 -30 -40
-37 -45 -45 -31 -6 12 -16 15 -28 10 -18 -7 -18 -8 -1 -17 10 -6 17 -22 17
-38 0 -41 -11 -91 -20 -91 -16 0 -32 170 -25 259 6 73 4 94 -10 121 -19 37
-13 94 12 123 15 16 14 17 -4 17 -14 0 -23 11 -31 39 -7 21 -12 48 -12 59 0
11 -4 24 -10 27 -7 4 -10 -418 -10 -1259 l0 -1266 465 0 465 0 6 26 c7 26 -9
54 -20 36 -3 -5 -21 4 -40 22 -36 33 -69 89 -59 100 4 3 0 6 -7 6 -7 0 -11 3
-8 6 5 5 78 -43 120 -80 9 -8 19 -12 22 -9 11 11 53 -33 51 -55 -1 -12 2 -22
6 -22 4 0 10 -8 12 -17 4 -17 5 -17 6 0 0 10 5 16 10 12 5 -3 13 0 17 6 4 7 3
9 -3 6 -6 -4 -16 0 -23 8 -7 8 -8 15 -3 15 12 0 56 -31 66 -47 6 -10 59 -13
237 -13 215 0 268 7 208 26 -31 10 -67 37 -68 50 0 15 71 44 85 35 6 -3 -2 -7
-17 -9 -16 -2 -28 -7 -28 -11 0 -12 33 -38 58 -46 16 -4 21 -12 17 -24 -5 -16
5 -18 91 -20 l95 -2 -12 23 c-18 36 -51 68 -70 68 -9 0 -22 6 -28 14 -9 11 -8
15 5 20 11 4 15 2 11 -7 -3 -9 4 -12 29 -9 19 2 34 8 34 12 0 20 -13 39 -23
33 -6 -3 -7 -1 -3 6 6 8 11 9 20 1 20 -15 64 -9 61 10 -1 9 -11 14 -27 12 -18
-1 -24 3 -24 18 0 13 5 19 13 16 7 -3 25 0 39 6 24 11 25 13 7 26 -16 12 -14
13 20 9 34 -4 38 -3 34 14 -3 12 -1 17 6 12 6 -4 8 0 4 10 -4 11 -1 17 8 17 8
0 15 4 15 8 0 4 14 13 31 19 17 7 33 20 35 30 8 29 38 43 78 36 28 -4 35 -10
34 -27 -2 -37 29 -94 66 -118 41 -27 43 -36 17 -79 -11 -17 -17 -38 -14 -45 3
-8 -6 -18 -21 -25 -14 -7 -26 -16 -26 -21 0 -4 -4 -8 -10 -8 -5 0 -10 7 -10
16 0 17 -57 124 -66 124 -3 0 0 -9 6 -19 14 -26 13 -31 -4 -25 -11 4 -13 -1
-10 -18 l5 -23 -16 21 c-20 27 -59 21 -52 -7 6 -24 -11 -25 -30 -2 -13 16 -13
16 -3 -4 8 -17 8 -23 0 -23 -6 0 -8 -5 -5 -10 4 -6 12 -7 18 -3 8 5 8 2 0 -9
-17 -19 -6 -29 23 -22 15 4 24 2 24 -5 0 -7 -8 -11 -17 -9 -10 2 -17 -3 -15
-9 2 -12 -3 -14 -40 -17 -14 -1 -28 -16 -28 -28 0 -4 736 -8 1635 -8 l1635 0
0 519 c0 406 -3 520 -12 524 -10 4 -10 6 0 6 9 1 12 106 12 492 0 327 -3 488
-10 484 -6 -3 -18 1 -27 11 -17 16 -16 17 10 12 l27 -5 0 418 0 419 -2364 0
-2364 0 5 -62z m3498 -194 c19 -42 35 -89 35 -105 0 -16 11 -54 25 -85 l25
-57 81 6 c76 6 82 5 105 -18 13 -13 24 -28 24 -32 0 -4 -9 -67 -18 -139 -19
-139 -15 -174 20 -174 11 0 16 -5 13 -10 -4 -6 -11 -7 -17 -4 -8 5 -9 1 -3
-12 4 -10 11 -31 16 -46 5 -16 13 -40 18 -55 5 -16 11 -37 15 -48 8 -26 -37
64 -67 135 l-24 55 -126 -5 c-69 -3 -123 -2 -120 3 2 4 19 7 38 7 19 0 37 5
40 10 3 6 42 10 87 10 80 0 80 0 76 25 -3 13 -1 26 3 27 15 5 35 217 23 236
-9 14 -30 18 -103 20 -90 3 -91 2 -91 -21 0 -13 -6 -32 -14 -42 -8 -11 -12
-26 -9 -35 4 -11 3 -12 -4 -2 -7 9 -27 -14 -73 -80 -35 -51 -77 -110 -93 -130
l-29 -38 -123 0 c-94 0 -125 3 -134 14 -8 10 -23 13 -46 9 -28 -4 -35 -1 -46
18 -7 13 -18 29 -25 34 -11 9 -94 225 -94 246 0 17 134 204 177 246 24 23 43
46 43 51 0 5 23 12 51 15 28 4 58 12 67 19 14 12 93 22 200 26 l43 2 34 -76z
m-1055 -12 c0 -11 9 -45 20 -78 12 -32 19 -67 16 -77 -6 -25 20 -97 42 -114
13 -11 44 -13 152 -8 191 9 183 21 141 -223 -36 -216 -36 -206 -15 -226 18
-18 131 -21 417 -9 l167 6 32 47 c17 25 43 54 56 64 16 13 6 -8 -30 -60 -31
-44 -58 -92 -61 -109 -4 -21 5 -57 30 -122 l36 -93 123 0 124 0 72 105 c40 58
74 101 76 95 3 -7 -29 -61 -69 -120 l-74 -109 -92 -1 c-51 0 -95 4 -98 10 -3
6 -19 10 -34 10 -33 0 -57 30 -90 113 l-23 57 -291 -2 -290 -3 -18 -25 c-12
-16 -30 -93 -52 -218 -39 -218 -50 -242 -116 -242 -46 -1 -74 -25 -141 -123
l-53 -78 -66 7 c-36 3 -70 10 -75 15 -6 5 -18 9 -28 9 -22 0 -38 28 -65 120
l-22 75 32 50 c38 59 105 139 121 143 8 3 8 1 0 -5 -6 -4 -39 -48 -73 -96
l-62 -89 25 -90 c13 -49 27 -93 31 -96 3 -3 45 -8 94 -10 l88 -4 52 73 c28 40
51 83 51 96 0 27 26 41 43 24 17 -17 72 -13 96 6 18 15 27 51 56 212 19 107
35 198 35 203 0 5 11 20 25 33 l24 25 286 0 285 0 -20 20 c-19 19 -33 20 -320
20 -277 0 -301 -1 -307 -17 -4 -10 -36 -60 -71 -110 l-64 -93 -78 0 c-43 0
-82 5 -85 10 -4 6 24 10 77 10 l83 0 70 105 70 104 313 1 c184 0 312 4 312 9
0 5 8 12 18 14 9 3 -109 5 -262 6 -245 1 -282 3 -298 18 -24 22 -23 42 12 236
35 195 34 181 15 201 -27 26 -315 6 -315 -23 0 -3 -44 -69 -98 -146 l-97 -140
-104 -3 c-63 -2 -108 1 -115 8 -5 5 -25 10 -43 10 -22 0 -33 5 -33 14 0 8 -6
21 -14 28 -7 8 -27 63 -44 123 l-30 109 70 103 c39 57 75 103 79 103 5 0 21
18 35 40 23 35 31 40 64 40 21 0 43 7 50 15 8 10 31 15 64 16 28 0 71 4 96 8
25 5 48 9 53 10 4 0 7 -7 7 -17z m2180 -86 c0 -3 -4 -8 -10 -11 -5 -3 -10 -1
-10 4 0 6 5 11 10 11 6 0 10 -2 10 -4z m-870 -16 c0 -5 -4 -10 -10 -10 -5 0
-10 5 -10 10 0 6 5 10 10 10 6 0 10 -4 10 -10z m710 -4 c0 -3 -4 -8 -10 -11
-5 -3 -10 -1 -10 4 0 6 5 11 10 11 6 0 10 -2 10 -4z m-4170 -16 c0 -5 -6 -10
-14 -10 -8 0 -18 5 -21 10 -3 6 3 10 14 10 12 0 21 -4 21 -10z m3550 -20 c0
-5 -2 -10 -4 -10 -3 0 -8 5 -11 10 -3 6 -1 10 4 10 6 0 11 -4 11 -10z m615
-10 c3 -5 1 -10 -4 -10 -6 0 -11 5 -11 10 0 6 2 10 4 10 3 0 8 -4 11 -10z
m-465 -20 c0 -5 -4 -10 -10 -10 -5 0 -10 5 -10 10 0 6 5 10 10 10 6 0 10 -4
10 -10z m150 0 c0 -5 -4 -10 -10 -10 -5 0 -10 5 -10 10 0 6 5 10 10 10 6 0 10
-4 10 -10z m-300 -10 c0 -5 -4 -10 -10 -10 -5 0 -10 5 -10 10 0 6 5 10 10 10
6 0 10 -4 10 -10z m460 0 c0 -5 -4 -10 -10 -10 -5 0 -10 5 -10 10 0 6 5 10 10
10 6 0 10 -4 10 -10z m320 0 c0 -5 -5 -10 -11 -10 -5 0 -7 5 -4 10 3 6 8 10
11 10 2 0 4 -4 4 -10z m-160 -20 c0 -5 -4 -10 -10 -10 -5 0 -10 5 -10 10 0 6
5 10 10 10 6 0 10 -4 10 -10z m-620 -20 c0 -5 -4 -10 -10 -10 -5 0 -10 5 -10
10 0 6 5 10 10 10 6 0 10 -4 10 -10z m300 0 c0 -5 -2 -10 -4 -10 -3 0 -8 5
-11 10 -3 6 -1 10 4 10 6 0 11 -4 11 -10z m160 -10 c0 -5 -4 -10 -10 -10 -5 0
-10 5 -10 10 0 6 5 10 10 10 6 0 10 -4 10 -10z m380 0 c0 -5 -4 -10 -10 -10
-5 0 -10 5 -10 10 0 6 5 10 10 10 6 0 10 -4 10 -10z m-160 -20 c0 -5 -4 -10
-10 -10 -5 0 -10 5 -10 10 0 6 5 10 10 10 6 0 10 -4 10 -10z m-530 -10 c0 -5
-4 -10 -10 -10 -5 0 -10 5 -10 10 0 6 5 10 10 10 6 0 10 -4 10 -10z m154 -11
c-3 -5 -10 -7 -15 -3 -5 3 -7 10 -3 15 3 5 10 7 15 3 5 -3 7 -10 3 -15z m216
1 c0 -5 -4 -10 -10 -10 -5 0 -10 5 -10 10 0 6 5 10 10 10 6 0 10 -4 10 -10z
m324 -21 c-3 -5 -10 -7 -15 -3 -5 3 -7 10 -3 15 3 5 10 7 15 3 5 -3 7 -10 3
-15z m-484 -9 c0 -5 -4 -10 -10 -10 -5 0 -10 5 -10 10 0 6 5 10 10 10 6 0 10
-4 10 -10z m320 0 c0 -5 -4 -10 -10 -10 -5 0 -10 5 -10 10 0 6 5 10 10 10 6 0
10 -4 10 -10z m-680 -10 c0 -5 -4 -10 -10 -10 -5 0 -10 5 -10 10 0 6 5 10 10
10 6 0 10 -4 10 -10z m150 0 c0 -5 -4 -10 -10 -10 -5 0 -10 5 -10 10 0 6 5 10
10 10 6 0 10 -4 10 -10z m-2188 -190 c26 -101 51 -191 54 -200 4 -8 8 -18 8
-22 1 -4 7 -13 15 -20 12 -11 13 -10 7 7 -7 19 -6 18 13 -2 27 -28 26 -33 -2
-33 l-23 0 20 -79 c16 -64 22 -76 32 -64 10 14 11 14 17 -1 4 -11 1 -19 -9
-23 -15 -5 -15 -7 0 -15 11 -6 15 -17 11 -31 -5 -19 -5 -20 5 -4 6 9 8 22 5
27 -3 6 -1 10 4 10 6 0 11 -5 11 -11 0 -8 6 -7 17 2 11 9 14 10 9 2 -5 -9 -2
-11 8 -7 9 3 13 11 10 16 -4 6 -1 8 7 6 9 -3 13 -18 12 -39 -1 -19 9 9 22 61
32 126 48 140 152 140 74 0 77 1 109 35 18 20 41 48 50 64 9 15 25 33 35 39
10 6 -2 -18 -27 -53 -64 -92 -66 -104 -33 -210 23 -73 25 -86 10 -66 -10 14
-26 51 -35 84 -23 83 -33 91 -119 88 -52 -2 -77 -7 -89 -19 -27 -27 -46 -144
-39 -242 l6 -85 19 78 c10 43 20 76 23 74 4 -4 -10 -92 -22 -142 -21 -81 -36
-152 -37 -165 0 -8 -6 -21 -12 -29 -8 -11 -8 -13 2 -7 6 4 12 5 12 2 0 -13
-41 -98 -45 -94 -3 3 1 21 9 40 9 20 13 38 9 41 -3 4 -1 26 6 49 15 59 20 117
10 124 -5 3 -9 0 -9 -6 0 -6 -5 -8 -10 -5 -6 4 -10 3 -9 -2 1 -4 1 -15 0 -23
-1 -13 -2 -13 -11 0 -6 10 -10 11 -10 3 0 -7 -12 -13 -26 -13 -20 0 -25 -4
-20 -16 3 -9 6 -20 6 -25 0 -5 9 -9 20 -9 13 0 20 -7 20 -20 0 -11 -5 -20 -11
-20 -5 0 -8 4 -5 9 3 5 -5 11 -19 13 -28 6 -29 4 -15 -23 8 -15 7 -19 -5 -19
-8 0 -15 7 -15 15 0 8 -4 15 -9 15 -15 0 -22 33 -9 42 9 6 6 7 -9 3 -18 -5
-21 -2 -19 20 2 14 -1 25 -6 25 -5 0 -6 5 -2 11 4 7 1 10 -7 7 -8 -3 -13 -12
-13 -21 1 -9 -2 -15 -6 -14 -15 4 -70 -83 -71 -110 0 -21 -2 -24 -7 -10 -6 13
-47 -40 -170 -218 -89 -129 -168 -246 -174 -260 -6 -13 -18 -27 -27 -30 -18
-5 -660 61 -669 69 -5 6 -16 80 -72 507 l-33 245 238 345 c131 189 239 345
239 345 2 4 538 31 591 30 l59 -1 48 -185z m2560 175 c0 -5 -5 -11 -11 -13 -6
-2 -11 4 -11 13 0 9 5 15 11 13 6 -2 11 -8 11 -13z m325 -21 c-9 -9 -28 6 -21
18 4 6 10 6 17 -1 6 -6 8 -13 4 -17z m-643 -5 c-3 -5 -10 -7 -15 -3 -5 3 -7
10 -3 15 3 5 10 7 15 3 5 -3 7 -10 3 -15z m480 -10 c-3 -5 -10 -7 -15 -3 -5 3
-7 10 -3 15 3 5 10 7 15 3 5 -3 7 -10 3 -15z m-684 1 c0 -5 -5 -10 -11 -10 -5
0 -7 5 -4 10 3 6 8 10 11 10 2 0 4 -4 4 -10z m360 0 c0 -5 -2 -10 -4 -10 -3 0
-8 5 -11 10 -3 6 -1 10 4 10 6 0 11 -4 11 -10z m-510 -10 c0 -5 -5 -10 -11
-10 -5 0 -7 5 -4 10 3 6 8 10 11 10 2 0 4 -4 4 -10z m680 -10 c0 -5 -7 -10
-15 -10 -8 0 -15 5 -15 10 0 6 7 10 15 10 8 0 15 -4 15 -10z m-810 -4 c0 -3
-4 -8 -10 -11 -5 -3 -10 -1 -10 4 0 6 5 11 10 11 6 0 10 -2 10 -4z m330 -6 c0
-5 -5 -10 -11 -10 -5 0 -7 5 -4 10 3 6 8 10 11 10 2 0 4 -4 4 -10z m160 -10
c0 -5 -4 -10 -10 -10 -5 0 -10 5 -10 10 0 6 5 10 10 10 6 0 10 -4 10 -10z
m537 -16 c-9 -9 -28 6 -21 18 4 6 10 6 17 -1 6 -6 8 -13 4 -17z m-377 6 c0 -5
-4 -10 -10 -10 -5 0 -10 5 -10 10 0 6 5 10 10 10 6 0 10 -4 10 -10z m-510 -10
c0 -5 -4 -10 -10 -10 -5 0 -10 5 -10 10 0 6 5 10 10 10 6 0 10 -4 10 -10z
m730 -4 c0 -11 -19 -15 -25 -6 -3 5 1 10 9 10 9 0 16 -2 16 -4z m-530 -20 c0
-3 -4 -8 -10 -11 -5 -3 -10 -1 -10 4 0 6 5 11 10 11 6 0 10 -2 10 -4z m150
-12 c0 -8 -4 -12 -10 -9 -5 3 -10 10 -10 16 0 5 5 9 10 9 6 0 10 -7 10 -16z
m220 2 c0 -11 -19 -15 -25 -6 -3 5 1 10 9 10 9 0 16 -2 16 -4z m380 -6 c0 -5
-4 -10 -10 -10 -5 0 -10 5 -10 10 0 6 5 10 10 10 6 0 10 -4 10 -10z m-160 -20
c0 -5 -7 -10 -15 -10 -8 0 -15 5 -15 10 0 6 7 10 15 10 8 0 15 -4 15 -10z
m-383 -26 c-9 -9 -28 6 -21 18 4 6 10 6 17 -1 6 -6 8 -13 4 -17z m-207 6 c0
-5 -4 -10 -10 -10 -5 0 -10 5 -10 10 0 6 5 10 10 10 6 0 10 -4 10 -10z m424
-11 c-3 -5 -10 -7 -15 -3 -5 3 -7 10 -3 15 3 5 10 7 15 3 5 -3 7 -10 3 -15z
m326 -9 c0 -5 -4 -10 -10 -10 -5 0 -10 5 -10 10 0 6 5 10 10 10 6 0 10 -4 10
-10z m-695 -20 c3 -5 -1 -10 -10 -10 -9 0 -13 5 -10 10 3 6 8 10 10 10 2 0 7
-4 10 -10z m215 0 c0 -5 -7 -10 -15 -10 -8 0 -15 5 -15 10 0 6 7 10 15 10 8 0
15 -4 15 -10z m320 0 c0 -5 -4 -10 -10 -10 -5 0 -10 5 -10 10 0 6 5 10 10 10
6 0 10 -4 10 -10z m-160 -30 c0 -5 -4 -10 -10 -10 -5 0 -10 5 -10 10 0 6 5 10
10 10 6 0 10 -4 10 -10z m-1664 -60 c20 -73 33 -135 29 -138 -1 -2 -15 35 -30
82 l-27 86 -75 0 c-49 0 -72 4 -68 10 4 7 38 10 83 8 l76 -3 12 -45z m1344 40
c0 -5 -4 -10 -10 -10 -5 0 -10 5 -10 10 0 6 5 10 10 10 6 0 10 -4 10 -10z
m540 -5 c0 -8 -4 -15 -10 -15 -5 0 -10 7 -10 15 0 8 5 15 10 15 6 0 10 -7 10
-15z m-370 -5 c0 -5 -7 -10 -15 -10 -8 0 -15 5 -15 10 0 6 7 10 15 10 8 0 15
-4 15 -10z m-570 -20 c0 -5 -5 -10 -11 -10 -5 0 -7 5 -4 10 3 6 8 10 11 10 2
0 4 -4 4 -10z m780 0 c0 -5 -4 -10 -10 -10 -5 0 -10 5 -10 10 0 6 5 10 10 10
6 0 10 -4 10 -10z m-530 -20 c0 -5 -4 -10 -10 -10 -5 0 -10 5 -10 10 0 6 5 10
10 10 6 0 10 -4 10 -10z m160 -4 c0 -3 -4 -8 -10 -11 -5 -3 -10 -1 -10 4 0 6
5 11 10 11 6 0 10 -2 10 -4z m210 -6 c0 -5 -4 -10 -10 -10 -5 0 -10 5 -10 10
0 6 5 10 10 10 6 0 10 -4 10 -10z m380 0 c0 -5 -4 -10 -10 -10 -5 0 -10 5 -10
10 0 6 5 10 10 10 6 0 10 -4 10 -10z m-950 -10 c0 -5 -4 -10 -10 -10 -5 0 -10
5 -10 10 0 6 5 10 10 10 6 0 10 -4 10 -10z m63 -35 c9 -19 13 -35 8 -35 -5 0
-14 -33 -21 -72 -20 -123 -19 -120 -43 -116 -15 2 -21 9 -20 23 2 11 5 55 7
98 5 70 27 137 46 137 4 0 14 -16 23 -35z m-1139 -7 c29 -30 38 -68 16 -68
-12 0 -31 26 -23 33 3 4 -2 16 -12 27 -27 29 -68 25 -110 -11 -19 -17 -35 -27
-35 -21 0 5 16 24 35 41 48 42 86 41 129 -1z m1866 22 c0 -5 -2 -10 -4 -10 -3
0 -8 5 -11 10 -3 6 -1 10 4 10 6 0 11 -4 11 -10z m-375 -10 c3 -5 -1 -10 -10
-10 -9 0 -13 5 -10 10 3 6 8 10 10 10 2 0 7 -4 10 -10z m-205 -10 c0 -5 -4
-10 -10 -10 -5 0 -10 5 -10 10 0 6 5 10 10 10 6 0 10 -4 10 -10z m-324 -15 c7
-17 -12 -45 -31 -45 -18 0 -27 30 -14 46 15 18 38 18 45 -1z m744 5 c0 -5 -4
-10 -10 -10 -5 0 -10 5 -10 10 0 6 5 10 10 10 6 0 10 -4 10 -10z m384 -11 c-3
-5 -10 -7 -15 -3 -5 3 -7 10 -3 15 3 5 10 7 15 3 5 -3 7 -10 3 -15z m-164 -9
c0 -5 -4 -10 -10 -10 -5 0 -10 5 -10 10 0 6 5 10 10 10 6 0 10 -4 10 -10z
m-1977 -12 c6 -18 -11 -48 -28 -48 -19 0 -27 16 -20 40 7 22 41 27 48 8z
m1387 2 c0 -5 -4 -10 -10 -10 -5 0 -10 5 -10 10 0 6 5 10 10 10 6 0 10 -4 10
-10z m210 -6 c0 -8 -4 -12 -10 -9 -5 3 -10 10 -10 16 0 5 5 9 10 9 6 0 10 -7
10 -16z m220 -14 c0 -5 -4 -10 -10 -10 -5 0 -10 5 -10 10 0 6 5 10 10 10 6 0
10 -4 10 -10z m-840 -22 c0 -9 3 -9 12 0 7 7 18 12 25 12 18 0 16 -45 -2 -64
-8 -8 -18 -29 -21 -45 -5 -24 -12 -31 -29 -31 -18 0 -22 4 -18 21 3 11 0 30
-6 43 -9 15 -9 29 -2 49 10 27 41 38 41 15z m114 -55 c-8 -71 -9 -73 -40 -73
-27 0 -28 7 -18 84 6 43 9 46 36 46 l29 0 -7 -57z m356 47 c0 -5 -4 -10 -10
-10 -5 0 -10 5 -10 10 0 6 5 10 10 10 6 0 10 -4 10 -10z m206 -17 c-10 -10
-19 5 -10 18 6 11 8 11 12 0 2 -7 1 -15 -2 -18z m391 1 c-9 -9 -28 6 -21 18 4
6 10 6 17 -1 6 -6 8 -13 4 -17z m-2044 -6 c9 -26 -6 -38 -44 -38 -40 0 -51 14
-27 38 16 16 65 15 71 0z m1887 -8 c0 -6 -10 -9 -22 -8 -13 0 -36 -3 -53 -7
-21 -5 -27 -4 -20 3 12 12 77 31 88 25 4 -2 7 -8 7 -13z m-1994 -19 c2 -32 19
-45 59 -45 25 0 43 8 65 29 16 16 33 26 36 22 10 -10 -52 -64 -82 -71 -15 -4
-39 -2 -53 4 -33 14 -65 56 -57 76 9 22 31 12 32 -15z m1614 -1 c0 -5 -4 -10
-10 -10 -5 0 -10 5 -10 10 0 6 5 10 10 10 6 0 10 -4 10 -10z m270 -4 c0 -20
-20 -32 -62 -39 -20 -3 -46 -15 -57 -26 -12 -12 -28 -21 -36 -21 -8 0 -20 -9
-27 -20 -7 -11 -19 -20 -26 -20 -9 0 -7 -11 8 -39 13 -26 16 -42 9 -46 -15
-10 -39 2 -39 19 0 7 -12 16 -27 19 -34 6 -47 -1 -33 -18 8 -9 5 -14 -11 -18
-15 -4 -19 -11 -14 -26 5 -17 0 -21 -32 -27 -45 -8 -86 -31 -78 -44 4 -6 -2
-10 -13 -10 -22 0 -65 -38 -57 -51 4 -5 2 -9 -3 -9 -13 0 -82 -67 -82 -79 0
-17 -20 -13 -26 4 -9 22 36 85 96 136 29 24 65 56 79 70 14 14 46 41 71 59 25
19 70 56 101 82 30 26 61 48 67 48 6 0 40 16 74 35 65 36 118 46 118 21z m385
-6 c3 -5 1 -10 -4 -10 -6 0 -11 5 -11 10 0 6 2 10 4 10 3 0 8 -4 11 -10z
m-165 -20 c0 -5 -4 -10 -10 -10 -5 0 -10 5 -10 10 0 6 5 10 10 10 6 0 10 -4
10 -10z m-430 -20 c0 -5 -4 -10 -10 -10 -5 0 -10 5 -10 10 0 6 5 10 10 10 6 0
10 -4 10 -10z m270 -10 c0 -5 -4 -10 -10 -10 -5 0 -10 5 -10 10 0 6 5 10 10
10 6 0 10 -4 10 -10z m139 -21 c-16 -10 -23 -4 -14 10 3 6 11 8 17 5 6 -4 5
-9 -3 -15z m-299 -8 c0 -6 -4 -13 -10 -16 -5 -3 -10 1 -10 9 0 9 5 16 10 16 6
0 10 -4 10 -9z m391 -5 c-7 -8 -21 -14 -32 -13 -37 3 -16 24 25 26 15 1 16 -2
7 -13z m-656 -6 c3 -5 -1 -10 -9 -10 -9 0 -16 5 -16 10 0 6 4 10 9 10 6 0 13
-4 16 -10z m355 -6 c0 -2 -12 -4 -26 -4 -14 0 -23 4 -20 9 6 8 46 4 46 -5z
m30 12 c0 -3 -4 -8 -10 -11 -5 -3 -10 -1 -10 4 0 6 5 11 10 11 6 0 10 -2 10
-4z m96 -33 c-10 -10 -19 5 -10 18 6 11 8 11 12 0 2 -7 1 -15 -2 -18z m-2286
-4 c0 -5 -7 -9 -15 -9 -9 0 -12 6 -9 15 6 15 24 11 24 -6z m2139 -20 c-8 -16
-13 -17 -31 -8 -17 9 -24 8 -32 -3 -15 -20 -48 -30 -65 -19 -34 22 35 59 98
53 36 -4 40 -6 30 -23z m398 9 c-3 -8 -6 -5 -6 6 -1 11 2 17 5 13 3 -3 4 -12
1 -19z m-17 -18 c0 -5 -4 -10 -10 -10 -5 0 -10 5 -10 10 0 6 5 10 10 10 6 0
10 -4 10 -10z m-160 -14 c0 -21 -12 -24 -38 -11 -17 9 -20 14 -10 18 25 10 48
7 48 -7z m-1086 -97 c20 -50 36 -106 36 -125 0 -18 12 -63 26 -98 21 -53 24
-70 16 -99 -5 -19 -58 -105 -118 -191 -92 -132 -112 -156 -134 -156 -85 0
-246 22 -256 35 -6 8 -29 17 -52 21 -26 4 -42 12 -42 20 0 8 -9 23 -19 33 -11
11 -37 73 -58 138 -47 141 -59 163 -94 163 -53 0 -65 -30 -104 -250 -24 -134
-42 -214 -54 -230 -23 -31 -67 -36 -213 -21 -85 9 -112 9 -128 -1 -11 -7 -55
-64 -97 -126 -62 -90 -77 -119 -74 -144 2 -26 0 -29 -18 -23 -14 4 -23 0 -30
-13 -10 -18 -14 -18 -118 -5 -81 11 -112 19 -123 33 -8 10 -28 20 -45 22 -21
2 -31 9 -33 23 -2 11 -10 27 -17 35 -7 8 -18 45 -25 83 -7 37 -14 67 -17 67
-2 0 -15 -12 -29 -27 -26 -28 -26 -28 1 9 25 35 26 39 15 96 l-12 59 74 110
c40 60 82 113 93 119 11 5 19 17 17 27 -2 10 3 17 13 17 9 0 18 7 21 15 5 11
16 13 45 9 30 -5 44 -2 59 11 11 10 26 15 35 11 9 -3 25 -1 36 4 13 7 19 7 19
0 0 -5 15 -10 34 -10 86 0 90 -4 114 -98 12 -48 21 -103 21 -122 -2 -48 18
-117 40 -139 26 -26 292 -51 316 -31 28 23 33 41 65 230 17 102 36 198 42 213
13 35 44 57 79 57 34 0 64 29 129 125 30 44 76 101 102 127 26 26 48 51 48 57
0 7 23 11 54 11 30 0 58 5 61 10 4 6 60 10 134 10 l128 0 37 -91z m926 61 c0
-5 -7 -10 -15 -10 -8 0 -15 5 -15 10 0 6 7 10 15 10 8 0 15 -4 15 -10z m90 -2
c0 -10 3 -9 9 1 5 7 15 11 22 9 10 -3 8 -8 -6 -15 -15 -9 -25 -8 -40 3 -16 12
-17 14 -2 14 9 0 17 -6 17 -12z m-190 -19 c0 -5 -7 -9 -15 -9 -15 0 -20 12 -9
23 8 8 24 -1 24 -14z m-45 -10 c3 -4 -4 -13 -15 -19 -25 -13 -46 -4 -31 14 6
7 8 15 5 19 -3 3 4 3 15 0 12 -3 24 -9 26 -14z m425 1 c0 -5 -4 -10 -10 -10
-5 0 -10 5 -10 10 0 6 5 10 10 10 6 0 10 -4 10 -10z m-162 -21 c-2 -6 -8 -10
-13 -10 -5 0 -11 4 -13 10 -2 6 4 11 13 11 9 0 15 -5 13 -11z m-1965 -51 c16
-56 28 -128 22 -128 -2 0 -13 34 -26 75 l-22 75 -37 0 c-53 0 -101 11 -94 21
3 5 36 9 74 9 l69 0 14 -52z m1264 46 c-3 -3 -12 -4 -19 -1 -8 3 -5 6 6 6 11
1 17 -2 13 -5z m373 -14 c-20 -13 -33 -13 -25 0 3 6 14 10 23 10 15 0 15 -2 2
-10z m-1925 -9 c3 -5 1 -12 -5 -16 -5 -3 -10 1 -10 9 0 18 6 21 15 7z m1817
-6 c0 -5 -5 -11 -11 -13 -6 -2 -11 4 -11 13 0 9 5 15 11 13 6 -2 11 -8 11 -13z
m269 -8 c-13 -13 -26 -3 -16 12 3 6 11 8 17 5 6 -4 6 -10 -1 -17z m-211 3 c0
-5 -5 -10 -11 -10 -5 0 -7 5 -4 10 3 6 8 10 11 10 2 0 4 -4 4 -10z m600 -10
c0 -5 -4 -10 -10 -10 -5 0 -10 5 -10 10 0 6 5 10 10 10 6 0 10 -4 10 -10z
m-540 -31 c0 -5 -7 -9 -15 -9 -15 0 -20 12 -9 23 8 8 24 -1 24 -14z m380 11
c0 -5 -4 -10 -10 -10 -5 0 -10 5 -10 10 0 6 5 10 10 10 6 0 10 -4 10 -10z
m-2130 -40 c14 -26 5 -57 -21 -71 -30 -15 -22 -54 11 -54 34 0 50 -12 50 -39
0 -28 -32 -59 -57 -54 -12 2 -20 15 -23 41 -3 21 -8 38 -12 37 -5 0 -12 0 -16
0 -4 0 -12 -15 -17 -32 -8 -28 -15 -33 -40 -33 -25 0 -30 4 -33 28 -4 36 14
59 47 57 14 -1 31 -2 37 -1 20 2 24 31 8 56 -13 19 -13 28 -3 47 22 42 52 50
69 18z m1970 10 c0 -5 -4 -10 -10 -10 -5 0 -10 5 -10 10 0 6 5 10 10 10 6 0
10 -4 10 -10z m-380 -30 c0 -5 -4 -10 -10 -10 -5 0 -10 5 -10 10 0 6 5 10 10
10 6 0 10 -4 10 -10z m220 -5 c0 -8 6 -15 13 -15 23 0 59 -32 49 -42 -7 -7
-22 -1 -46 18 -34 28 -47 54 -26 54 6 0 10 -7 10 -15z m440 5 c0 -5 -4 -10
-10 -10 -5 0 -10 5 -10 10 0 6 5 10 10 10 6 0 10 -4 10 -10z m-160 -20 c0 -5
-4 -10 -10 -10 -5 0 -10 5 -10 10 0 6 5 10 10 10 6 0 10 -4 10 -10z m-436 -41
c-3 -5 -10 -7 -15 -3 -5 3 -7 10 -3 15 3 5 10 7 15 3 5 -3 7 -10 3 -15z m273
-5 c-9 -9 -28 6 -21 18 4 6 10 6 17 -1 6 -6 8 -13 4 -17z m-2507 -9 c0 -8 -4
-15 -10 -15 -5 0 -7 7 -4 15 4 8 8 15 10 15 2 0 4 -7 4 -15z m400 -15 c0 -5
-4 -10 -10 -10 -5 0 -10 5 -10 10 0 6 5 10 10 10 6 0 10 -4 10 -10z m-206 -32
c4 -17 2 -28 -4 -28 -5 0 -10 14 -10 32 0 36 4 35 14 -4z m2156 10 c0 -19 -2
-20 -10 -8 -13 19 -13 30 0 30 6 0 10 -10 10 -22z m280 2 c0 -5 -7 -10 -15
-10 -8 0 -15 5 -15 10 0 6 7 10 15 10 8 0 15 -4 15 -10z m-2500 -19 c-15 -28
-70 -81 -83 -80 -8 0 -8 2 1 6 6 2 12 11 12 18 0 8 8 16 18 19 11 4 25 18 32
31 7 14 17 25 22 25 5 0 4 -9 -2 -19z m-2298 -19 c7 -10 26 -22 41 -26 31 -7
131 -76 122 -84 -2 -3 -13 2 -22 10 -21 17 -68 36 -102 40 -13 2 -29 12 -35
23 -6 11 -17 24 -23 28 -7 4 -13 12 -13 17 0 16 18 11 32 -8z m4629 5 c-1 -12
-15 -9 -19 4 -3 6 1 10 8 8 6 -3 11 -8 11 -12z m169 3 c0 -5 -5 -10 -11 -10
-5 0 -7 5 -4 10 3 6 8 10 11 10 2 0 4 -4 4 -10z m-2657 -17 c-5 -12 -2 -15 10
-10 12 5 17 1 17 -13 0 -27 -14 -25 -34 5 -20 30 -20 35 -1 35 9 0 12 -6 8
-17z m2227 7 c0 -5 -7 -10 -15 -10 -8 0 -15 5 -15 10 0 6 7 10 15 10 8 0 15
-4 15 -10z m420 -20 c-20 -13 -43 -13 -35 0 3 6 16 10 28 10 18 0 19 -2 7 -10z
m-2433 -32 c-3 -8 -6 -5 -6 6 -1 11 2 17 5 13 3 -3 4 -12 1 -19z m2123 12 c0
-5 -4 -10 -10 -10 -5 0 -10 5 -10 10 0 6 5 10 10 10 6 0 10 -4 10 -10z m285
-10 c3 -5 -1 -10 -9 -10 -8 0 -18 5 -21 10 -3 6 1 10 9 10 8 0 18 -4 21 -10z
m-2605 -15 c0 4 6 2 13 -4 8 -6 16 -10 18 -8 2 1 1 -2 -4 -8 -5 -6 -11 -5 -16
4 -6 10 -11 6 -19 -15 -8 -23 -11 -25 -12 -9 -1 11 -3 28 -5 38 -3 15 -1 16
11 6 8 -6 14 -8 14 -4z m2440 -19 c0 -11 -19 -15 -25 -6 -3 5 1 10 9 10 9 0
16 -2 16 -4z m-270 -10 c0 -3 -4 -8 -10 -11 -5 -3 -10 -1 -10 4 0 6 5 11 10
11 6 0 10 -2 10 -4z m-4055 -73 c26 -26 59 -66 74 -88 34 -53 90 -169 84 -175
-2 -3 -9 3 -14 13 -6 9 -14 15 -19 12 -5 -3 -23 1 -39 10 -17 8 -39 15 -50 15
-12 0 -27 13 -38 30 -10 18 -30 34 -47 38 -16 4 -30 15 -32 25 -1 9 2 15 7 11
5 -3 12 1 15 9 6 17 64 13 75 -5 5 -7 11 -9 16 -5 4 5 3 11 -3 15 -6 4 -14 20
-18 36 -4 15 -9 26 -13 23 -8 -9 -31 16 -26 29 6 16 -37 10 -47 -7 -8 -12 -12
-12 -26 2 -13 13 -14 21 -5 38 19 34 53 26 106 -26z m4165 27 c0 -5 -4 -10
-10 -10 -5 0 -10 5 -10 10 0 6 5 10 10 10 6 0 10 -4 10 -10z m270 0 c0 -5 -4
-10 -10 -10 -5 0 -10 5 -10 10 0 6 5 10 10 10 6 0 10 -4 10 -10z m340 -42 c0
-5 -21 -8 -46 -8 -25 0 -43 3 -41 8 3 4 24 7 46 7 23 0 41 -3 41 -7z m-4916
-14 c5 -14 4 -15 -9 -4 -17 14 -19 20 -6 20 5 0 12 -7 15 -16z m4266 -40 c0
-8 -5 -12 -10 -9 -6 4 -8 11 -5 16 9 14 15 11 15 -7z m120 -38 c0 -3 -4 -8
-10 -11 -5 -3 -10 -1 -10 4 0 6 5 11 10 11 6 0 10 -2 10 -4z m80 -146 c0 -5
-4 -10 -10 -10 -5 0 -10 5 -10 10 0 6 5 10 10 10 6 0 10 -4 10 -10z m-4280
-71 c0 -5 3 -8 8 -5 10 6 102 -61 102 -75 0 -7 -7 -8 -17 -4 -10 4 -29 10 -43
12 -34 6 -66 32 -75 61 -5 16 -2 22 9 22 9 0 16 -5 16 -11z m4240 -29 c0 -5
-2 -10 -4 -10 -3 0 -8 5 -11 10 -3 6 -1 10 4 10 6 0 11 -4 11 -10z m-150 -60
c0 -5 -2 -10 -4 -10 -3 0 -8 5 -11 10 -3 6 -1 10 4 10 6 0 11 -4 11 -10z
m-3926 -35 c14 -13 26 -28 26 -34 0 -5 2 -15 5 -23 4 -9 -3 -14 -20 -16 -14
-1 -25 2 -25 6 0 4 -16 6 -35 4 -43 -5 -48 17 -9 38 17 9 24 20 21 32 -7 25 5
23 37 -7z m4046 -5 c0 -5 -4 -10 -10 -10 -5 0 -10 5 -10 10 0 6 5 10 10 10 6
0 10 -4 10 -10z m-3166 -130 c10 0 17 -3 13 -6 -10 -10 -57 5 -57 18 0 9 3 9
12 0 7 -7 21 -12 32 -12z m74 -17 c-10 -2 -26 -2 -35 0 -10 3 -2 5 17 5 19 0
27 -2 18 -5z m-884 -42 c3 -5 -1 -11 -9 -15 -15 -6 -29 7 -18 18 9 9 21 8 27
-3z m26 -31 c0 -5 -2 -10 -4 -10 -3 0 -8 5 -11 10 -3 6 -1 10 4 10 6 0 11 -4
11 -10z m1836 -37 c-11 -11 -17 4 -9 23 7 18 8 18 11 1 2 -10 1 -21 -2 -24z
m-1783 3 c6 -16 -2 -28 -14 -20 -12 7 -11 34 0 34 5 0 11 -6 14 -14z m4067 4
c0 -5 -4 -10 -10 -10 -5 0 -10 5 -10 10 0 6 5 10 10 10 6 0 10 -4 10 -10z
m-4020 -86 c-7 -7 -19 -14 -26 -14 -8 0 -14 -6 -15 -12 0 -9 -2 -9 -6 1 -5 11
-7 11 -14 0 -6 -10 -9 -11 -9 -2 0 7 9 18 20 25 11 7 20 18 20 25 0 17 24 22
33 6 5 -8 4 -20 -3 -29z m51 -20 c10 -13 10 -17 -1 -24 -20 -12 -38 -1 -33 21
6 23 16 24 34 3z m-134 -36 c-3 -8 -6 -5 -6 6 -1 11 2 17 5 13 3 -3 4 -12 1
-19z m1138 -48 c-3 -5 -11 -10 -16 -10 -6 0 -7 5 -4 10 3 6 11 10 16 10 6 0 7
-4 4 -10z m165 -66 c0 -8 -4 -12 -10 -9 -5 3 -10 10 -10 16 0 5 5 9 10 9 6 0
10 -7 10 -16z m77 -29 c0 -8 -4 -12 -9 -9 -4 3 -8 9 -8 15 0 5 4 9 8 9 5 0 9
-7 9 -15z m-92 -55 c8 -13 -5 -13 -25 0 -13 8 -13 10 2 10 9 0 20 -4 23 -10z"/>
<path d="M3670 2653 c-19 -2 -63 -6 -97 -9 l-63 -6 -103 -147 -104 -148 44
-114 c24 -63 50 -127 57 -144 l13 -30 166 3 166 3 76 108 c41 60 90 132 109
160 l34 52 -62 137 -63 137 -69 0 c-38 1 -85 -1 -104 -2z m60 -83 c0 -5 -2
-10 -4 -10 -3 0 -8 5 -11 10 -3 6 -1 10 4 10 6 0 11 -4 11 -10z m-47 -42 c8
-22 -13 -48 -38 -48 -27 0 -34 27 -13 48 16 16 45 15 51 0z m-5 -67 c8 -5 12
-17 10 -27 -2 -15 -14 -20 -51 -22 -53 -3 -64 15 -25 42 25 18 46 20 66 7z
m-32 -95 c-6 -29 -3 -37 20 -53 37 -27 23 -50 -16 -26 -27 15 -30 15 -54 0
-14 -9 -30 -17 -36 -17 -20 0 -9 21 20 38 18 11 32 28 36 47 8 37 12 45 26 45
6 0 8 -13 4 -34z m132 -57 c4 -21 -26 -51 -47 -47 -20 4 -26 35 -10 54 16 19
53 14 57 -7z m-250 -15 c4 -25 -22 -49 -43 -40 -31 12 -9 70 25 64 8 -2 16
-13 18 -24z m250 -71 c3 -19 -1 -23 -25 -23 -15 0 -38 -3 -50 -6 -18 -5 -23
-2 -23 13 0 29 22 44 60 41 28 -2 36 -8 38 -25z m-240 -10 c3 -21 0 -23 -47
-23 -35 0 -51 4 -51 13 0 24 24 38 60 35 28 -2 36 -8 38 -25z"/>
<path d="M2665 2578 c-66 -5 -125 -14 -131 -19 -19 -16 -184 -256 -184 -268 0
-6 17 -67 37 -136 l36 -125 91 0 c50 0 114 3 141 6 l50 7 84 120 c103 148 109
167 81 250 -45 135 -63 177 -74 176 -6 -1 -65 -6 -131 -11z m15 -113 c50 -26
60 -95 23 -168 -13 -25 -12 -31 18 -74 24 -35 30 -50 22 -62 -19 -30 -47 -23
-76 19 -24 33 -31 38 -47 30 -10 -5 -34 -10 -52 -10 -100 0 -126 124 -45 217
51 59 105 75 157 48z"/>
<path d="M2570 2428 c-56 -39 -86 -118 -60 -158 7 -10 12 -12 18 -4 25 37 98
45 111 13 7 -21 8 -21 31 11 33 46 34 115 1 141 -31 25 -61 24 -101 -3z m74
-43 c15 -41 -38 -91 -69 -65 -19 16 -19 30 1 58 17 25 59 29 68 7z"/>
<path d="M1767 2245 c-249 -13 -285 -20 -273 -52 3 -8 2 -12 -3 -9 -9 6 -64
-71 -64 -91 0 -7 -4 -10 -7 -8 -9 6 -63 -74 -63 -92 0 -7 -4 -10 -9 -7 -7 5
-12 -10 -9 -29 0 -4 -5 -6 -11 -5 -7 2 -12 -5 -12 -14 1 -10 -3 -16 -10 -15
-6 1 -11 -6 -11 -15 0 -9 -4 -20 -9 -25 -5 -5 -6 -2 -2 7 4 8 -2 4 -13 -10
-20 -24 -25 -36 -22 -52 0 -5 -5 -7 -11 -5 -7 1 -12 -6 -12 -15 1 -10 -3 -16
-10 -15 -6 1 -11 -6 -11 -15 0 -9 -4 -20 -9 -25 -5 -4 -6 -3 -2 5 4 6 5 12 3
12 -8 0 -60 -84 -60 -97 0 -6 -5 -11 -11 -10 -6 1 -11 -6 -11 -15 0 -9 -4 -20
-9 -25 -5 -4 -6 -3 -2 5 17 28 -4 9 -24 -22 l-21 -34 32 -233 c22 -158 35
-226 41 -213 6 13 7 8 3 -16 -3 -19 -2 -62 2 -95 5 -49 8 -55 14 -35 5 16 6 2
4 -35 -3 -42 -2 -51 4 -30 l8 30 4 -30 c4 -27 8 -31 49 -36 l45 -7 -52 3 c-29
1 -53 -2 -53 -7 0 -4 6 -8 13 -8 6 0 143 -14 302 -30 160 -17 295 -30 302 -30
6 0 25 19 41 43 15 23 104 151 196 285 93 134 166 245 164 247 -3 3 -78 -102
-168 -233 -90 -130 -177 -256 -194 -279 -28 -42 -31 -43 -80 -41 l-51 2 50 3
50 4 118 172 c65 95 159 232 209 305 50 72 93 130 96 127 3 -3 -3 -14 -13 -25
-10 -11 -14 -20 -9 -20 5 0 20 18 34 40 18 29 31 40 49 40 20 0 22 3 13 12 -9
9 -17 10 -30 2 -15 -10 -17 -6 -19 34 -1 25 5 58 12 72 13 24 9 45 -31 210
-24 101 -42 185 -39 188 3 3 5 1 5 -4 0 -17 87 -345 93 -351 4 -3 14 -2 24 3
16 7 16 8 -3 11 -17 3 -24 18 -38 81 -10 42 -22 91 -27 107 -4 17 -30 119 -56
228 l-47 197 -56 -1 c-30 -1 -166 -7 -303 -14z m251 -12 c-21 -2 -55 -2 -75 0
-21 2 -4 4 37 4 41 0 58 -2 38 -4z m-250 -10 c-10 -2 -28 -2 -40 0 -13 2 -5 4
17 4 22 1 32 -1 23 -4z m349 -15 c-3 -8 -6 -5 -6 6 -1 11 2 17 5 13 3 -3 4
-12 1 -19z m-544 5 c-13 -2 -33 -2 -45 0 -13 2 -3 4 22 4 25 0 35 -2 23 -4z
m554 -45 c-3 -8 -6 -5 -6 6 -1 11 2 17 5 13 3 -3 4 -12 1 -19z m41 -153 c0
-11 -6 3 -14 30 -7 28 -13 55 -13 60 2 17 27 -69 27 -90z m12 -190 c18 -71 38
-149 45 -172 12 -39 11 -45 -7 -69 -17 -21 -19 -31 -11 -57 8 -30 3 -40 -88
-167 -162 -227 -228 -323 -259 -375 -17 -27 -45 -66 -63 -86 l-32 -36 -125 12
c-69 7 -163 16 -210 20 -46 3 -89 9 -94 12 -5 4 -35 5 -65 4 -31 -1 -61 2 -67
6 -5 5 -16 46 -23 93 -6 47 -14 92 -17 101 -3 10 11 28 39 50 36 28 42 37 31
47 -7 6 -18 12 -24 12 -20 0 -10 19 13 22 20 3 22 9 25 63 3 57 1 62 -34 99
-29 30 -38 36 -46 25 -7 -10 -8 -8 -3 8 4 16 -2 26 -25 43 -21 15 -30 29 -28
44 1 11 -1 27 -6 34 -10 17 -1 26 27 27 13 0 21 5 19 14 -2 9 3 11 14 7 12 -5
15 -2 10 11 -6 14 -4 15 5 6 9 -9 15 -8 26 3 13 13 17 13 30 -3 8 -10 11 -11
7 -3 -4 9 2 7 17 -6 39 -34 49 -37 49 -15 0 15 -6 21 -21 21 -14 0 -19 5 -17
18 3 14 16 18 66 20 57 3 62 1 62 -18 0 -14 -6 -20 -24 -20 -21 0 -25 -6 -31
-46 -3 -26 -9 -53 -12 -60 -3 -8 0 -14 5 -14 6 0 30 33 54 73 30 48 51 73 66
75 18 3 22 -4 33 -57 16 -86 29 -81 44 17 5 32 11 42 26 42 10 0 19 5 19 11 0
6 -6 9 -13 6 -8 -3 -19 -2 -26 2 -9 6 -7 11 5 22 16 12 17 12 9 -1 -7 -12 -6
-13 6 -4 8 5 24 9 36 8 17 -1 22 4 20 20 -1 16 3 20 19 18 11 -1 29 7 40 19
10 13 14 19 7 15 -14 -7 -53 27 -53 46 0 7 7 3 15 -9 8 -12 24 -21 34 -20 15
1 24 19 41 84 22 83 47 127 35 61 -7 -38 15 -82 30 -58 6 9 4 11 -6 5 -8 -5
-10 -4 -6 0 15 17 39 14 32 -3 -3 -9 8 -2 24 17 17 19 31 29 31 22 0 -7 13 0
29 16 l28 28 -46 6 c-36 5 -26 6 44 8 97 2 157 9 190 21 27 10 35 -7 75 -165z
m-495 5 c-27 -12 -43 -12 -25 0 8 5 22 9 30 9 10 0 8 -3 -5 -9z m-168 -242
c-3 -8 -6 -5 -6 6 -1 11 2 17 5 13 3 -3 4 -12 1 -19z m-440 -40 c-3 -7 -5 -2
-5 12 0 14 2 19 5 13 2 -7 2 -19 0 -25z m292 1 c-13 -26 -23 -18 -14 10 3 12
11 19 16 16 5 -4 5 -14 -2 -26z m853 -101 c-7 -7 -12 -8 -12 -2 0 6 3 14 7 17
3 4 9 5 12 2 2 -3 -1 -11 -7 -17z m-1075 -405 c-3 -10 -5 -2 -5 17 0 19 2 27
5 18 2 -10 2 -26 0 -35z m201 -180 c-10 -2 -28 -2 -40 0 -13 2 -5 4 17 4 22 1
32 -1 23 -4z m177 -13 c48 -7 48 -7 10 -8 -22 0 -67 4 -100 8 l-60 7 50 1 c28
0 73 -3 100 -8z m128 -17 c-13 -2 -35 -2 -50 0 -16 2 -5 4 22 4 28 0 40 -2 28
-4z"/>
<path d="M1930 1949 c0 -5 5 -7 10 -4 6 3 10 8 10 11 0 2 -4 4 -10 4 -5 0 -10
-5 -10 -11z"/>
<path d="M1740 1879 c0 -8 7 -24 15 -35 19 -25 19 -14 0 22 -8 16 -15 22 -15
13z"/>
<path d="M1830 1876 c0 -2 7 -7 16 -10 8 -3 12 -2 9 4 -6 10 -25 14 -25 6z"/>
<path d="M1731 1834 c0 -11 3 -14 6 -6 3 7 2 16 -1 19 -3 4 -6 -2 -5 -13z"/>
<path d="M1583 1635 c-3 -9 -3 -18 -1 -21 3 -3 8 4 11 16 6 23 -1 27 -10 5z"/>
<path d="M1690 1600 c0 -5 4 -10 9 -10 6 0 13 5 16 10 3 6 -1 10 -9 10 -9 0
-16 -4 -16 -10z"/>
<path d="M2011 1584 c0 -11 3 -14 6 -6 3 7 2 16 -1 19 -3 4 -6 -2 -5 -13z"/>
<path d="M1436 1581 c-4 -7 -5 -15 -2 -18 9 -9 19 4 14 18 -4 11 -6 11 -12 0z"/>
<path d="M1291 1554 c0 -11 3 -14 6 -6 3 7 2 16 -1 19 -3 4 -6 -2 -5 -13z"/>
<path d="M1800 1558 c0 -9 7 -22 17 -29 15 -13 15 -12 3 11 -17 34 -20 36 -20
18z"/>
<path d="M1400 1515 c-17 -21 -9 -27 13 -10 10 7 14 16 9 19 -5 3 -15 -1 -22
-9z"/>
<path d="M1255 1230 c3 -5 10 -10 16 -10 5 0 9 5 9 10 0 6 -7 10 -16 10 -8 0
-12 -4 -9 -10z"/>
<path d="M2438 1483 c7 -3 16 -2 19 1 4 3 -2 6 -13 5 -11 0 -14 -3 -6 -6z"/>
<path d="M2279 1443 c-13 -16 -12 -17 4 -4 9 7 17 15 17 17 0 8 -8 3 -21 -13z"/>
<path d="M3307 1409 c-72 -102 -107 -161 -107 -179 0 -22 94 -317 104 -327 1
-2 58 -7 127 -13 68 -5 147 -12 175 -15 l50 -6 117 170 117 169 -67 171 -68
171 -126 0 c-69 0 -146 3 -171 6 l-45 6 -106 -153z m183 34 c0 -5 27 -8 59 -8
63 0 113 -24 119 -59 5 -22 -17 -20 -43 4 -12 11 -42 23 -68 26 -39 6 -47 4
-47 -10 0 -12 -9 -16 -35 -16 -40 0 -41 2 -18 41 16 27 33 38 33 22z m-36
-119 c31 -30 8 -94 -34 -94 -43 0 -56 68 -18 94 28 20 33 20 52 0z m241 -18
c20 -30 3 -74 -32 -82 -50 -13 -75 59 -31 90 31 22 45 20 63 -8z m-227 -114
c7 -9 11 -26 10 -37 -3 -18 -11 -20 -73 -20 -64 0 -70 2 -73 21 -5 34 44 67
88 59 19 -3 41 -14 48 -23z m230 -4 c7 -7 12 -27 12 -46 0 -31 -2 -34 -22 -28
-13 3 -47 6 -75 6 -59 0 -68 14 -37 58 12 17 25 22 63 22 26 0 52 -5 59 -12z
m-261 -119 c29 -29 127 -41 117 -15 -5 13 1 16 35 16 23 0 41 -2 41 -5 0 -3
-10 -21 -22 -40 -23 -34 -38 -44 -38 -25 0 6 -24 10 -54 10 -58 0 -118 30
-124 63 -5 23 17 21 45 -4z"/>
<path d="M2235 1088 c-4 -13 -7 -27 -6 -31 1 -5 -3 -6 -9 -2 -5 3 -10 1 -10
-6 0 -7 -3 -9 -7 -6 -3 4 2 16 12 27 10 11 13 20 7 20 -13 0 -127 -156 -127
-173 0 -23 -26 -58 -37 -51 -7 5 -9 2 -5 -8 4 -11 -1 -18 -15 -21 -13 -4 -17
-10 -12 -19 5 -7 9 -20 9 -28 1 -8 2 -26 3 -39 2 -20 4 -21 17 -11 9 7 19 10
23 6 4 -4 -2 -14 -12 -22 -17 -12 -18 -18 -9 -51 6 -21 17 -68 24 -105 14 -78
-7 -67 188 -93 63 -8 115 -14 115 -13 1 2 15 21 32 43 80 105 162 233 168 262
5 22 -2 68 -24 150 -53 201 -41 183 -116 183 -59 0 -64 -2 -65 -22 -1 -21 -2
-21 -6 -3 -7 29 -21 35 -79 35 -45 0 -53 -3 -59 -22z m-25 -62 c0 -2 -7 -7
-16 -10 -8 -3 -12 -2 -9 4 6 10 25 14 25 6z m-55 -56 c-10 -11 -23 -20 -28
-20 -6 0 0 11 13 25 27 29 42 25 15 -5z m220 16 c32 -23 27 -92 -8 -122 -36
-31 -62 -30 -83 1 -22 34 -11 88 23 115 30 24 43 25 68 6z m-45 -182 c0 -8 -9
-14 -20 -14 -22 0 -28 26 -7 33 16 6 27 -1 27 -19z m-49 -21 c1 -21 3 -30 6
-20 3 12 11 17 22 14 11 -2 23 4 30 15 9 15 19 18 39 13 48 -12 52 -21 52
-126 l0 -99 -30 0 c-27 0 -30 3 -31 33 -1 30 -2 30 -8 7 -7 -23 -11 -25 -67
-23 -86 4 -104 10 -105 36 l0 22 -11 -22 c-12 -25 -58 -33 -58 -10 0 21 60
160 77 179 9 11 30 18 50 18 31 0 33 -2 34 -37z"/>
<path d="M2340 710 c0 -5 5 -10 10 -10 6 0 10 5 10 10 0 6 -4 10 -10 10 -5 0
-10 -4 -10 -10z"/>
<path d="M2748 1375 c-3 -15 -1 -25 6 -25 6 0 12 11 12 25 2 32 -12 32 -18 0z"/>
<path d="M2660 1250 c0 -5 5 -10 10 -10 6 0 10 5 10 10 0 6 -4 10 -10 10 -5 0
-10 -4 -10 -10z"/>
<path d="M2789 1255 c-1 -3 -2 -8 -3 -12 -1 -5 -4 -13 -8 -19 -4 -6 -5 -14 -1
-18 13 -13 20 -5 21 24 1 25 -5 41 -9 25z"/>
<path d="M2650 1220 c0 -5 7 -10 15 -10 8 0 15 5 15 10 0 6 -7 10 -15 10 -8 0
-15 -4 -15 -10z"/>
<path d="M61 2549 c-10 -28 -8 -56 5 -99 4 -12 6 -12 14 0 7 11 13 7 27 -18
25 -44 59 -44 67 2 4 18 3 42 -1 53 -8 18 -84 93 -96 93 -3 0 -10 -14 -16 -31z"/>
<path d="M128 2305 c-22 -29 -23 -41 -2 -49 29 -11 34 -6 34 34 0 46 -8 49
-32 15z"/>
<path d="M1890 215 c14 -17 36 -20 44 -6 4 5 -3 7 -14 4 -11 -3 -20 0 -20 6 0
6 -5 11 -11 11 -8 0 -8 -5 1 -15z"/>
<path d="M1796 124 c-3 -7 -1 -16 5 -20 6 -3 14 -17 19 -30 5 -13 14 -24 20
-24 6 0 9 4 6 9 -4 5 3 7 14 4 25 -7 25 4 0 42 -21 31 -55 42 -64 19z m58 -32
c3 -5 -1 -9 -9 -9 -8 0 -12 4 -9 9 3 4 7 8 9 8 2 0 6 -4 9 -8z"/>
<path d="M1718 89 c-7 -5 -8 -9 -2 -9 6 0 17 -11 24 -25 13 -24 32 -28 58 -12
20 13 3 28 -18 17 -13 -7 -21 -7 -26 2 -4 6 -3 8 3 5 6 -4 16 0 23 8 7 8 11
15 9 16 -21 6 -61 4 -71 -2z"/>
</g>
</svg>
